<svg id="Capa_1" data-name="Capa 1" xmlns="http://www.w3.org/2000/svg" viewBox="0 0 104.23 122.34"><defs><style>.cls-1{fill:#010101;}</style></defs><path class="cls-1" d="M21.9,58.67v-39H22V0H2.14C1.51,0,.88.11,0,.19v122c7.25,0,14.55.11,21.9.11V78.74H22V58.67Z"/><path class="cls-1" d="M76.82,73.4S69.39,56,69.35,56.07c-5.3-12.3-10.48-24.34-15.81-36.7C53.6,19.37,45.21,0,45.21,0H24V19.63h5.39c5.35,12.67,10.78,25.54,16.47,39H24V78.74h30.6c6.62,14.53,12.14,29.05,18.77,43.6H97.89C90.48,105.79,84.07,89.6,76.82,73.4Z"/><path class="cls-1" d="M103.31,50.22a78.63,78.63,0,0,0,.92-13.29c0-14.65-7-25.15-20-31.68A51.13,51.13,0,0,0,61.11.09h-14l8.37,19.35c6.16-.09,11.69.58,16.8,3.08C80,26.23,82.64,32.69,82.45,40.85c-.17,7.56-4.43,11.89-11.1,15.22l7.5,17.34c3.46-1.62,7.56-3,10.68-4.74C96.83,64.57,101.89,58.59,103.31,50.22Z"/></svg>