<svg id="Capa_1" data-name="Capa 1" xmlns="http://www.w3.org/2000/svg" viewBox="0 0 302.63 257.06"><defs><style>.cls-1{fill:#010101;}.cls-2{font-size:60px;fill:#5355a1;font-family:TrendSansFour, Trend Sans;}.cls-3{letter-spacing:-0.02em;}.cls-4{font-size:21px;fill:#1d1d1b;font-family:Gotham-Light, Gotham Light;font-weight:300;letter-spacing:0.49em;}.cls-5{letter-spacing:0.5em;}.cls-6{letter-spacing:0.48em;}.cls-7{letter-spacing:0.5em;}</style></defs><path class="cls-1" d="M117.24,71.89v-39h.06V13.22H97.48c-.63,0-1.27.11-2.14.19v122c7.25,0,14.55.11,21.9.11V92h.06V71.89Z"/><path class="cls-1" d="M172.15,86.62s-7.42-17.36-7.46-17.34l-15.81-36.7c.06,0-8.33-19.36-8.33-19.36H119.3V32.85h5.39c5.35,12.67,10.78,25.54,16.47,39H119.3V92h30.6c6.62,14.53,12.14,29,18.77,43.6h24.56C185.82,119,179.41,102.82,172.15,86.62Z"/><path class="cls-1" d="M198.65,63.44a78.7,78.7,0,0,0,.92-13.29c0-14.66-7-25.16-20-31.68a51.28,51.28,0,0,0-23.12-5.17h-14l8.37,19.36c6.16-.09,11.69.58,16.8,3.08,7.63,3.72,10.32,10.18,10.13,18.34-.17,7.55-4.43,11.89-11.1,15.21l7.5,17.35c3.46-1.63,7.56-3,10.68-4.74C192.17,77.79,197.23,71.81,198.65,63.44Z"/><text class="cls-2" transform="translate(8.56 198.64)">res<tspan class="cls-3" x="130.74" y="0">t</tspan><tspan x="171.66" y="0">or</tspan></text><text class="cls-4" transform="translate(32.18 235.97)">f<tspan class="cls-5" x="17.89" y="0">or </tspan><tspan class="cls-6" x="77.53" y="0">c</tspan><tspan class="cls-7" x="99.71" y="0">ourses</tspan></text></svg>